<?xml version="1.0" encoding="UTF-8" standalone="no"?>
<svg
   xmlns:dc="http://purl.org/dc/elements/1.1/"
   xmlns:cc="http://creativecommons.org/ns#"
   xmlns:rdf="http://www.w3.org/1999/02/22-rdf-syntax-ns#"
   xmlns:svg="http://www.w3.org/2000/svg"
   xmlns="http://www.w3.org/2000/svg"
   xmlns:sodipodi="http://sodipodi.sourceforge.net/DTD/sodipodi-0.dtd"
   xmlns:inkscape="http://www.inkscape.org/namespaces/inkscape"
   width="210mm"
   height="210mm"
   viewBox="0 0 210 210"
   version="1.1"
   id="svg1375"
   inkscape:export-filename="/Users/alixedi/bitmap.png"
   inkscape:export-xdpi="61.927616"
   inkscape:export-ydpi="61.927616"
   sodipodi:docname="New document 2.2020_09_30_07_46_15.1.svg"
   inkscape:version="1.0.1 (c497b03c, 2020-09-10)">
  <defs
     id="defs1369">
    <inkscape:path-effect
       effect="spiro"
       id="path-effect3063"
       is_visible="true"
       lpeversion="1" />
    <inkscape:path-effect
       effect="spiro"
       id="path-effect3059"
       is_visible="true"
       lpeversion="1" />
    <inkscape:path-effect
       effect="spiro"
       id="path-effect3040"
       is_visible="true"
       lpeversion="1" />
    <inkscape:path-effect
       effect="spiro"
       id="path-effect2638"
       is_visible="true"
       lpeversion="1" />
    <inkscape:path-effect
       effect="spiro"
       id="path-effect2352"
       is_visible="true"
       lpeversion="1" />
    <inkscape:path-effect
       effect="spiro"
       id="path-effect2324"
       is_visible="true"
       lpeversion="1" />
    <inkscape:path-effect
       effect="spiro"
       id="path-effect2308"
       is_visible="true"
       lpeversion="1" />
  </defs>
  <sodipodi:namedview
     id="base"
     pagecolor="#ffffff"
     bordercolor="#666666"
     borderopacity="1.0"
     inkscape:pageopacity="0.0"
     inkscape:pageshadow="2"
     inkscape:zoom="0.24453472"
     inkscape:cx="-3.3958284"
     inkscape:cy="461.10328"
     inkscape:document-units="mm"
     inkscape:current-layer="layer1"
     inkscape:document-rotation="0"
     showgrid="false"
     inkscape:window-width="1440"
     inkscape:window-height="855"
     inkscape:window-x="158"
     inkscape:window-y="23"
     inkscape:window-maximized="0" />
  <metadata
     id="metadata1372">
    <rdf:RDF>
      <cc:Work
         rdf:about="">
        <dc:format>image/svg+xml</dc:format>
        <dc:type
           rdf:resource="http://purl.org/dc/dcmitype/StillImage" />
        <dc:title />
      </cc:Work>
    </rdf:RDF>
  </metadata>
  <g
     inkscape:label="Layer 1"
     inkscape:groupmode="layer"
     id="layer1">
    <rect
       style="fill:#002255;fill-opacity:1;stroke:#12cdf1;stroke-width:0;stroke-miterlimit:4;stroke-dasharray:none;stroke-opacity:0.709677"
       id="rect1377"
       width="213.07469"
       height="212.42262"
       x="-212.68651"
       y="5.1266477e-07"
       ry="0"
       transform="scale(-1,1)" />
    <path
       sodipodi:type="star"
       style="fill:#ffffff;fill-opacity:0.451613;stroke:none;stroke-width:0;stroke-miterlimit:4;stroke-dasharray:none;stroke-opacity:0.709677"
       id="path2280"
       sodipodi:sides="3"
       sodipodi:cx="49.817112"
       sodipodi:cy="145.23087"
       sodipodi:r1="88.2052"
       sodipodi:r2="44.1026"
       sodipodi:arg1="0.50997206"
       sodipodi:arg2="1.5571696"
       inkscape:flatsided="false"
       inkscape:rounded="0"
       inkscape:randomized="0"
       d="m 126.79892,188.28849 -76.380853,1.04088 -76.380852,1.04089 37.288993,-66.6682 37.288994,-66.668206 39.091858,65.627316 z"
       inkscape:transform-center-x="22.509688"
       inkscape:transform-center-y="-1.7523424"
       transform="matrix(0.01298437,0.96945933,1.0223465,-0.05294834,37.209109,122.34705)" />
    <g
       id="g3242"
       transform="matrix(0.88842446,-0.0235518,0.0235518,0.88842446,17.207847,16.715007)"
       style="stroke-width:0.999668;stroke-miterlimit:4;stroke-dasharray:none">
      <path
         sodipodi:type="spiral"
         style="fill:none;fill-rule:evenodd;stroke:#fffafa;stroke-width:4.98537;stroke-miterlimit:4;stroke-dasharray:none;stroke-opacity:0.35"
         id="path3208-3-1"
         sodipodi:cx="-122.35896"
         sodipodi:cy="73.237457"
         sodipodi:expansion="1"
         sodipodi:revolution="3"
         sodipodi:radius="66.056679"
         sodipodi:argument="-18.398727"
         sodipodi:t0="0"
         transform="matrix(-0.60023072,0,0,-0.61945581,87.544557,160.48281)"
         d="m -122.35896,73.237457 c 2.98106,1.443066 -0.47447,4.730375 -2.39847,4.954727 -5.21392,0.607981 -8.14734,-5.321353 -7.51099,-9.751668 1.13828,-7.924794 9.88456,-11.847368 17.10487,-10.067239 10.5961,2.612411 15.627907,14.499119 12.62349,24.458063 -4.00441,13.273706 -19.13053,19.441 -31.81126,15.17975 -15.95739,-5.362347 -23.27057,-23.769651 -17.736,-39.164457 6.7031,-18.645172 28.41303,-27.109629 46.51765,-20.292262 21.335672,8.03403 30.954625,33.059063 22.84852,53.870852 -9.358819,24.028037 -37.70686,34.803577 -61.22405,25.404777 -26.72172,-10.67952 -38.65531,-42.355909 -27.96103,-68.57725 11.99737,-29.416381 47.00586,-42.5090646 75.930445,-30.517286 32.111769,13.313148 46.364327,51.656505 33.073542,83.283646" />
      <path
         sodipodi:type="spiral"
         style="fill:none;fill-rule:evenodd;stroke:#fffafa;stroke-width:3.03992;stroke-miterlimit:4;stroke-dasharray:none;stroke-opacity:0.350806"
         id="path3208"
         sodipodi:cx="65.843697"
         sodipodi:cy="68.504837"
         sodipodi:expansion="1"
         sodipodi:revolution="3"
         sodipodi:radius="66.056679"
         sodipodi:argument="-18.398727"
         sodipodi:t0="0"
         d="m 65.843697,68.504837 c 2.981065,1.443066 -0.474472,4.730374 -2.398471,4.954727 -5.213918,0.60798 -8.147332,-5.321354 -7.510983,-9.751668 1.138279,-7.924794 9.884553,-11.847368 17.104866,-10.067239 10.596099,2.612411 15.627908,14.499119 12.623494,24.458063 -4.004411,13.273706 -19.130537,19.441 -31.81126,15.17975 C 37.893948,87.916122 30.580768,69.508818 36.115337,54.114013 42.818441,35.46884 64.52837,27.004384 82.632992,33.821751 103.96866,41.855781 113.58761,66.880814 105.48151,87.692603 96.122691,111.72064 67.774647,122.49618 44.25746,113.09738 17.535737,102.41785 5.6021459,70.74147 16.29643,44.52013 28.293801,15.103749 63.302292,2.0110652 92.226874,14.002844 124.33864,27.315991 138.5912,65.659349 125.30042,97.286486" />
    </g>
    <g
       id="g3206"
       transform="matrix(0.16128282,0,0,0.16583742,25.268258,124.49918)"
       style="fill:#80ffe6">
      <g
         id="XMLID_105_"
         style="fill:#80ffe6">
        <path
           id="XMLID_112_"
           d="m 475.798,294.835 h -4.359 l -0.49,-1.836 C 457.39,242.143 411.338,206.758 358.694,206.758 h -2.649 l -10.842,-48.756 c -5.717,-25.74 -28.551,-44.055 -54.912,-44.055 H 252.67 c -103.996,0 -195.904,67.622 -226.865,166.908 l -4.359,13.98 H 16.35 c -9.036,0 -16.35,7.32 -16.35,16.351 0,9.029 7.313,16.352 16.35,16.352 h 13.304 c -0.225,-11.473 3.002,-22.682 9.068,-32.702 3.18,-5.245 6.853,-10.269 11.547,-14.634 14.066,-13.094 33.321,-20.742 55.658,-22.123 25.744,-1.598 50.204,14.082 62.164,36.757 4.229,8.007 6.961,16.837 7.553,26.155 0.145,2.259 -0.13,4.431 -0.574,6.547 h 150.41 c -0.223,-11.473 3.002,-22.682 9.071,-32.702 3.175,-5.245 6.852,-10.269 11.541,-14.634 14.071,-13.094 33.328,-20.742 55.664,-22.123 25.566,-1.598 50.125,14.082 62.129,36.757 4.252,8.007 6.996,16.837 7.588,26.155 0.145,2.259 -0.131,4.431 -0.574,6.547 h 4.898 c 9.037,0 16.352,-7.322 16.352,-16.352 0,-9.031 -7.314,-16.351 -16.351,-16.351 z M 228.367,147.766 c 0,-7.113 5.59,-12.956 12.694,-13.26 1.962,-0.079 3.93,-0.127 5.891,-0.127 h 29.16 c 20.435,0 38.094,14.186 42.551,34.12 l 4.742,21.358 c 0.865,3.927 -0.096,8.039 -2.604,11.178 -2.523,3.137 -6.337,4.964 -10.363,4.964 h -68.803 c -7.326,0 -13.268,-5.938 -13.268,-13.268 z m -110.079,58.226 c -3.115,0 -5.908,-1.844 -7.152,-4.693 -1.232,-2.844 -0.658,-6.157 1.466,-8.424 21.78,-23.266 49.372,-40.559 80.08,-50.051 4.025,-1.244 8.415,-0.503 11.8,1.996 3.402,2.506 5.395,6.468 5.395,10.682 v 37.221 c 0,7.328 -5.94,13.27 -13.266,13.27 h -78.323 z"
           style="fill:#80ffe6" />
        <path
           id="XMLID_109_"
           d="m 167.482,321.5 c -1.962,-31.336 -30.543,-56.939 -61.042,-55.262 -20.439,1.261 -37.938,8.158 -50.616,19.949 -12.518,11.658 -19.148,27.465 -18.155,43.359 0.543,8.672 7.727,15.339 16.301,15.339 0.336,0 0.688,-0.009 1.022,-0.032 1.519,-0.096 2.858,-0.654 4.233,-1.134 0.748,2.722 1.693,5.341 2.902,7.831 7.602,15.721 23.569,26.651 42.203,26.651 20.457,0 37.669,-13.136 44.121,-31.368 0.864,-2.438 1.529,-4.947 1.981,-7.543 8.856,-0.827 17.601,-8.94 17.05,-17.79 z m -63.151,35.138 c -14.035,0 -25.405,-11.386 -25.405,-25.429 0,-14.035 11.37,-25.421 25.405,-25.421 14.036,0 25.422,11.386 25.422,25.421 0,14.043 -11.386,25.429 -25.422,25.429 z"
           style="fill:#80ffe6" />
        <path
           id="XMLID_106_"
           d="m 463.311,321.5 c -1.961,-31.336 -30.576,-56.939 -61.041,-55.262 -20.439,1.261 -37.938,8.158 -50.617,19.949 -12.52,11.658 -19.147,27.465 -18.154,43.359 0.543,8.672 7.727,15.339 16.302,15.339 0.335,0 0.686,-0.009 1.022,-0.032 1.514,-0.096 2.858,-0.654 4.229,-1.134 0.752,2.722 1.693,5.341 2.906,7.831 7.601,15.721 23.568,26.651 42.202,26.651 20.458,0 37.669,-13.136 44.122,-31.368 0.859,-2.424 1.522,-4.922 1.975,-7.504 8.915,-0.733 17.61,-8.92 17.054,-17.829 z m -63.151,35.138 c -14.035,0 -25.417,-11.386 -25.417,-25.429 0,-14.035 11.382,-25.421 25.417,-25.421 14.037,0 25.423,11.386 25.423,25.421 0,14.043 -11.386,25.429 -25.423,25.429 z"
           style="fill:#80ffe6" />
      </g>
      <g
         id="g3150"
         style="fill:#80ffe6" />
      <g
         id="g3152"
         style="fill:#80ffe6" />
      <g
         id="g3154"
         style="fill:#80ffe6" />
      <g
         id="g3156"
         style="fill:#80ffe6" />
      <g
         id="g3158"
         style="fill:#80ffe6" />
      <g
         id="g3160"
         style="fill:#80ffe6" />
      <g
         id="g3162"
         style="fill:#80ffe6" />
      <g
         id="g3164"
         style="fill:#80ffe6" />
      <g
         id="g3166"
         style="fill:#80ffe6" />
      <g
         id="g3168"
         style="fill:#80ffe6" />
      <g
         id="g3170"
         style="fill:#80ffe6" />
      <g
         id="g3172"
         style="fill:#80ffe6" />
      <g
         id="g3174"
         style="fill:#80ffe6" />
      <g
         id="g3176"
         style="fill:#80ffe6" />
      <g
         id="g3178"
         style="fill:#80ffe6" />
    </g>
  </g>
</svg>
