<svg width="795" height="382" viewBox="0 0 795 382" fill="none" xmlns="http://www.w3.org/2000/svg">
<path d="M0.390625 300V15.625H87.8906C112.891 15.625 135.221 21.2891 154.883 32.6172C174.674 43.8151 190.104 59.8307 201.172 80.6641C212.24 101.367 217.773 124.935 217.773 151.367V164.453C217.773 190.885 212.305 214.388 201.367 234.961C190.56 255.534 175.26 271.484 155.469 282.812C135.677 294.141 113.346 299.87 88.4766 300H0.390625ZM58.9844 63.0859V252.93H87.3047C110.221 252.93 127.734 245.443 139.844 230.469C151.953 215.495 158.138 194.076 158.398 166.211V151.172C158.398 122.266 152.409 100.391 140.43 85.5469C128.451 70.5729 110.938 63.0859 87.8906 63.0859H58.9844ZM375.586 141.602C367.904 140.56 361.133 140.039 355.273 140.039C333.919 140.039 319.922 147.266 313.281 161.719V300H256.836V88.6719H310.156L311.719 113.867C323.047 94.4661 338.737 84.7656 358.789 84.7656C365.039 84.7656 370.898 85.612 376.367 87.3047L375.586 141.602ZM462.5 300H405.859V88.6719H462.5V300ZM402.539 33.9844C402.539 25.5208 405.339 18.5547 410.938 13.0859C416.667 7.61719 424.414 4.88281 434.18 4.88281C443.815 4.88281 451.497 7.61719 457.227 13.0859C462.956 18.5547 465.82 25.5208 465.82 33.9844C465.82 42.5781 462.891 49.6094 457.031 55.0781C451.302 60.5469 443.685 63.2812 434.18 63.2812C424.674 63.2812 416.992 60.5469 411.133 55.0781C405.404 49.6094 402.539 42.5781 402.539 33.9844ZM699.414 196.289C699.414 228.841 691.992 254.948 677.148 274.609C662.435 294.141 642.513 303.906 617.383 303.906C596.029 303.906 578.776 296.484 565.625 281.641V381.25H509.18V88.6719H561.523L563.477 109.375C577.148 92.9688 594.987 84.7656 616.992 84.7656C643.034 84.7656 663.281 94.401 677.734 113.672C692.188 132.943 699.414 159.505 699.414 193.359V196.289ZM642.969 192.188C642.969 172.526 639.453 157.357 632.422 146.68C625.521 136.003 615.43 130.664 602.148 130.664C584.44 130.664 572.266 137.435 565.625 150.977V237.5C572.526 251.432 584.831 258.398 602.539 258.398C629.492 258.398 642.969 236.328 642.969 192.188ZM794.141 300H737.5V0H794.141V300Z" fill="black"/>
</svg>
